<?xml version="1.0" standalone="no"?>
<!DOCTYPE svg PUBLIC "-//W3C//DTD SVG 20010904//EN"
 "http://www.w3.org/TR/2001/REC-SVG-20010904/DTD/svg10.dtd">
<svg version="1.0" xmlns="http://www.w3.org/2000/svg"
 width="424.000000pt" height="387.000000pt" viewBox="0 0 424.000000 387.000000"
 preserveAspectRatio="xMidYMid meet">
<metadata>
Created by potrace 1.16, written by Peter Selinger 2001-2019
</metadata>
<g transform="translate(0.000000,387.000000) scale(0.100000,-0.100000)"
fill="#000000" stroke="none">
<path d="M2025 3546 c-79 -19 -196 -62 -254 -93 -253 -141 -431 -387 -480
-667 -14 -77 -14 -245 0 -322 24 -137 97 -309 145 -341 49 -32 124 6 124 63 0
12 -18 58 -39 101 -97 195 -102 447 -14 647 102 231 306 396 552 446 54 11
125 20 156 20 87 0 247 -36 323 -73 100 -50 146 -81 215 -150 154 -151 232
-336 232 -552 0 -181 -27 -260 -180 -525 -43 -74 -110 -190 -149 -258 -39 -68
-105 -182 -147 -255 -289 -502 -282 -490 -294 -490 -11 0 -27 27 -143 228 -41
72 -110 191 -153 265 -43 74 -97 169 -120 210 -83 146 -132 225 -147 238 -48
37 -122 -5 -122 -70 0 -35 27 -85 339 -623 48 -82 132 -228 187 -324 78 -137
106 -177 130 -188 56 -27 77 -6 188 188 55 96 139 242 187 324 538 928 548
947 578 1119 14 77 14 245 0 322 -44 253 -202 490 -414 626 -86 55 -136 78
-245 113 -75 25 -103 28 -240 31 -107 3 -173 -1 -215 -10z"/>
<path d="M2098 3090 c-129 -33 -255 -139 -316 -267 -36 -77 -37 -80 -37 -198
0 -117 1 -122 36 -195 72 -149 179 -235 341 -271 l94 -22 94 22 c161 37 268
122 339 271 35 73 36 78 36 195 0 118 -1 121 -37 198 -50 105 -130 185 -234
234 -70 33 -85 37 -178 39 -55 2 -118 -1 -138 -6z m245 -183 c241 -110 244
-440 4 -564 -44 -23 -65 -27 -132 -27 -67 0 -88 4 -132 27 -138 71 -209 222
-170 358 56 193 253 287 430 206z"/>
<path d="M1831 1059 c-107 -18 -248 -62 -336 -105 -146 -71 -214 -153 -215
-258 -1 -165 182 -285 541 -358 103 -21 141 -23 394 -23 253 0 291 2 394 23
359 73 542 193 541 358 -1 105 -69 187 -215 259 -108 53 -296 103 -416 112
-79 5 -88 4 -108 -16 -29 -29 -28 -81 2 -108 15 -15 45 -25 100 -32 176 -24
343 -80 425 -141 74 -56 71 -102 -12 -155 -118 -75 -320 -128 -565 -147 -324
-25 -685 37 -857 147 -83 53 -86 99 -12 155 82 61 249 117 425 141 92 12 123
34 123 86 0 52 -29 73 -97 72 -32 -1 -82 -5 -112 -10z"/>
</g>
</svg>
